<?xml version="1.0" standalone="no"?>
<!DOCTYPE svg PUBLIC "-//W3C//DTD SVG 20010904//EN"
 "http://www.w3.org/TR/2001/REC-SVG-20010904/DTD/svg10.dtd">
<svg version="1.0" xmlns="http://www.w3.org/2000/svg"
 width="450.000000pt" height="450.000000pt" viewBox="0 0 450.000000 450.000000"
 preserveAspectRatio="xMidYMid meet">
<metadata>
Created by potrace 1.10, written by Peter Selinger 2001-2011
</metadata>
<g transform="translate(0.000000,450.000000) scale(0.050000,-0.050000)"
fill="#000000" stroke="none">
<path d="M4560 7865 c-1 -33 -106 -65 -135 -41 -17 14 -33 16 -42 5 -32 -46
-106 -72 -134 -48 -43 35 -89 7 -91 -55 -1 -59 -7 -51 -27 41 l-13 57 -49 -53
c-27 -29 -57 -48 -68 -42 -10 6 -23 -5 -30 -25 -7 -22 -29 -36 -56 -36 -32 2
-47 -12 -54 -50 -6 -28 -41 -87 -78 -130 -36 -43 -52 -56 -35 -29 23 35 25 55
9 75 -32 38 -57 32 -57 -14 0 -45 -21 -51 -54 -18 -13 13 -34 16 -49 6 -15
-10 -31 -18 -37 -18 -28 -3 -100 -63 -100 -83 0 -13 -11 -27 -25 -32 -20 -7
-20 -15 1 -40 30 -36 -51 -115 -119 -115 -20 0 -37 -10 -37 -21 0 -12 11 -15
25 -6 17 10 16 4 -2 -19 -16 -19 -41 -34 -56 -34 -16 0 -34 -16 -42 -35 -7
-19 -26 -48 -43 -65 -26 -27 -24 -31 18 -37 36 -5 40 -11 18 -25 -24 -15 -24
-21 2 -37 29 -19 -19 -89 -119 -176 -15 -13 -23 -29 -17 -35 6 -6 37 14 70 44
120 112 136 122 107 68 -14 -26 -48 -67 -75 -90 -33 -29 -44 -53 -35 -78 13
-34 16 -34 54 0 40 35 40 35 18 -8 -27 -51 9 -89 41 -44 16 23 17 23 10 -2 -4
-16 -23 -29 -40 -27 -59 4 -110 -76 -99 -159 8 -66 13 -72 42 -50 27 21 26 18
-2 -16 -19 -23 -35 -60 -35 -83 0 -23 -15 -57 -33 -75 -28 -28 -29 -36 -5 -52
16 -10 18 -18 5 -18 -37 0 -17 -196 26 -243 75 -83 104 -84 86 -4 -18 82 -7
127 33 127 16 0 22 -12 15 -30 -8 -21 2 -30 33 -30 34 0 41 8 30 35 -29 71
-27 191 4 238 21 32 28 74 21 126 -6 45 0 97 15 125 14 25 59 109 100 186 134
250 274 390 392 390 31 0 60 8 66 17 6 10 74 15 150 12 113 -4 137 0 129 23
-14 36 13 35 108 -1 41 -16 89 -28 105 -26 32 3 251 -95 300 -135 17 -14 56
-31 87 -38 31 -8 73 -29 93 -48 21 -19 72 -52 114 -74 42 -21 99 -55 126 -74
28 -20 80 -39 116 -43 172 -18 276 -186 317 -510 16 -126 25 -232 20 -236 -13
-14 -295 70 -328 97 -46 39 -373 33 -419 -7 -100 -85 -311 -100 -436 -31 -33
18 -76 39 -95 46 -19 7 -35 21 -35 30 0 26 -215 20 -326 -9 -122 -32 -101 -53
54 -53 450 -2 515 -87 361 -470 -36 -89 55 18 113 134 112 221 210 138 236
-201 10 -127 27 -211 49 -245 34 -52 34 -53 -77 -170 -60 -65 -110 -129 -110
-143 0 -14 -7 -24 -15 -22 -28 6 -125 -27 -125 -43 0 -36 68 -66 146 -64 129
4 182 -32 136 -94 -35 -46 -51 -50 -232 -61 -88 -6 -6 -38 100 -40 88 -1 177
-141 89 -141 -19 0 -40 -20 -46 -44 -13 -51 2 -77 24 -41 22 36 95 7 121 -48
41 -90 30 -105 -70 -97 -81 7 -152 30 -91 30 13 0 23 10 23 21 0 12 -10 15
-22 8 -40 -25 -56 37 -25 97 16 32 27 61 23 64 -13 14 -155 18 -167 5 -20 -20
37 -70 68 -59 22 7 22 0 3 -36 -16 -29 -36 -40 -62 -34 -21 6 -38 2 -38 -8 0
-10 17 -18 39 -18 21 0 43 -7 49 -16 5 -10 -9 -16 -32 -15 -57 2 -68 -40 -12
-44 25 -2 49 -13 52 -24 4 -12 20 -21 36 -21 15 0 28 -10 28 -21 0 -12 14 -35
30 -52 39 -39 39 -87 -1 -87 -23 0 -26 -9 -12 -35 13 -25 7 -46 -20 -73 -22
-23 -37 -29 -37 -14 0 43 -40 1 -42 -44 -2 -41 -3 -40 -17 6 -13 43 -18 45
-30 15 -9 -19 -32 -35 -52 -35 -20 0 -42 -9 -49 -20 -16 -26 22 -26 71 1 22
11 39 13 39 3 0 -10 -25 -30 -55 -46 -54 -27 -52 -28 64 -34 66 -4 109 -13 95
-22 -52 -32 -46 -103 7 -90 55 14 62 -5 22 -63 -35 -51 -26 -170 16 -200 27
-21 23 -26 -30 -36 -34 -7 -56 -21 -50 -31 6 -10 0 -24 -14 -30 -32 -16 65 -1
105 15 49 20 96 -19 62 -51 -23 -22 -25 -21 -11 4 14 25 11 26 -14 5 -17 -13
-35 -20 -41 -14 -6 6 -16 -3 -23 -20 -9 -24 3 -31 57 -31 53 0 66 7 57 30 -6
16 -2 30 9 30 11 0 25 22 32 50 8 29 32 54 60 61 34 9 47 26 47 64 0 36 28 78
91 136 50 47 86 91 79 97 -6 7 3 12 22 12 18 0 49 18 68 40 18 22 45 40 59 40
15 0 26 10 26 21 0 12 19 17 45 11 25 -7 34 -6 20 0 -14 6 -25 20 -25 30 0 10
11 18 25 18 18 0 25 48 25 175 0 165 5 185 83 345 82 167 147 376 147 472 0
26 11 48 26 48 61 0 141 127 137 220 -4 83 -2 87 26 52 29 -37 31 -36 50 16
39 102 11 274 -53 325 -20 16 -22 27 -6 37 12 7 16 30 10 50 -6 20 -3 42 7 48
10 6 30 -31 44 -83 l25 -95 19 119 c15 103 13 123 -16 144 -19 14 -29 38 -23
55 7 16 -1 39 -15 52 -23 18 -21 44 11 156 21 74 38 157 38 185 0 28 9 60 20
71 11 11 22 118 25 239 5 216 -4 267 -82 489 -36 102 -202 407 -227 417 -9 3
-16 19 -16 35 0 16 -13 34 -30 41 -16 6 -30 28 -30 49 0 24 -10 33 -30 25 -20
-8 -30 1 -30 29 0 21 -16 45 -35 51 -19 7 -48 20 -65 29 -16 10 -73 40 -126
66 -53 26 -114 64 -136 84 -21 20 -47 31 -57 25 -24 -15 -123 30 -110 51 5 8
1 21 -11 28 -11 7 -20 -2 -20 -19 0 -17 -10 -31 -22 -31 -12 0 -17 14 -10 31
14 37 -34 59 -83 38 -52 -22 -105 -25 -105 -6 0 10 -9 17 -20 17 -11 0 -20 -7
-20 -15z m620 -1967 c0 -15 22 -19 60 -11 34 7 60 4 60 -7 0 -23 -67 -26 -162
-7 -56 12 -60 16 -27 29 56 22 69 21 69 -4z m362 -272 c-18 -31 -21 -29 -21
17 -1 84 27 142 35 73 4 -30 -3 -71 -14 -90z m75 -166 c-2 -49 7 -115 20 -146
32 -79 27 -117 -6 -44 -15 33 -29 51 -31 40 -22 -144 -76 -307 -78 -237 -1 37
-15 68 -33 75 -18 6 -29 1 -27 -13 6 -51 -3 -77 -22 -65 -11 7 -20 -6 -20 -27
0 -22 -12 -52 -26 -67 -56 -57 -114 -154 -114 -189 0 -82 -77 -94 -114 -17
-18 38 -42 70 -52 70 -11 0 -36 19 -57 43 -20 24 -37 33 -37 21 0 -38 -53 -5
-77 48 -28 62 -29 74 -2 58 13 -9 16 5 7 40 -7 29 -4 73 7 97 11 23 30 68 42
98 12 30 32 55 45 55 12 0 52 14 89 32 46 22 107 29 196 25 71 -4 125 0 120 8
-5 8 4 15 19 15 34 0 113 173 116 254 2 53 3 52 20 -14 10 -38 16 -110 15
-160z"/>
<path d="M3733 7651 c-8 -22 -1 -57 18 -86 44 -67 54 -47 23 45 -22 62 -30 70
-41 41z"/>
<path d="M3540 5931 c0 -56 7 -68 40 -66 43 4 54 44 19 66 -12 7 -17 26 -11
41 6 16 -2 28 -19 28 -20 0 -29 -22 -29 -69z"/>
<path d="M4047 5869 c-9 -22 -18 -24 -38 -8 -19 16 -30 10 -42 -25 -35 -100
-16 -135 73 -136 28 0 74 -13 103 -28 72 -37 174 18 122 67 -28 25 -27 30 6
41 35 12 33 18 -16 67 -61 61 -188 75 -208 22z"/>
<path d="M3290 5820 c-7 -11 -35 -20 -64 -20 -44 0 -47 -4 -25 -31 35 -43 101
-28 121 26 17 45 -8 64 -32 25z"/>
<path d="M4075 5465 c-85 -4 -155 -15 -155 -26 0 -29 282 -21 350 10 57 26 58
28 10 25 -27 -1 -120 -5 -205 -9z"/>
<path d="M5588 3439 c154 -183 -86 -592 -739 -1259 -391 -400 -629 -673 -786
-905 -84 -122 -83 -123 -196 60 -52 85 -154 236 -225 335 -71 99 -179 250
-239 336 l-111 156 -27 -52 c-21 -40 -40 -51 -81 -46 -99 11 -76 156 26 156
l44 0 -60 205 c-116 399 -86 687 89 844 120 107 101 119 -36 23 -158 -110
-676 -360 -945 -456 -213 -75 -502 -212 -502 -237 0 -10 -12 -19 -28 -19 -15
0 -43 -25 -62 -55 -19 -30 -87 -104 -150 -165 -162 -154 -185 -277 -123 -653
32 -189 43 -347 44 -597 1 -328 20 -533 44 -470 6 17 30 107 53 200 23 94 47
190 54 215 11 38 7 43 -23 32 -41 -16 -32 258 10 300 12 12 21 46 21 77 0 65
62 136 119 136 27 0 36 10 28 30 -7 19 0 30 19 30 18 0 36 25 44 60 7 33 23
60 34 60 29 0 4 -115 -32 -151 -78 -78 -53 -224 29 -173 22 14 49 20 60 13 10
-6 19 3 19 20 0 17 10 31 22 31 12 0 18 -12 12 -26 -13 -34 59 -82 77 -52 14
22 124 6 160 -24 13 -10 31 -8 44 5 15 15 27 10 43 -19 12 -23 49 -47 82 -54
66 -15 84 -77 28 -98 -23 -9 -29 -4 -21 18 14 37 9 37 -78 1 -38 -16 -69 -43
-69 -60 0 -17 -13 -31 -29 -31 -19 0 -26 -12 -18 -35 9 -29 7 -30 -10 -6 -11
17 -27 24 -35 16 -7 -7 -32 0 -55 16 -56 39 -84 37 -44 -2 17 -18 31 -48 31
-68 0 -20 18 -41 40 -47 41 -10 57 -54 20 -54 -11 0 -20 -17 -20 -39 0 -21
-10 -45 -22 -52 -16 -10 -15 -18 2 -29 16 -10 19 -37 10 -78 -11 -50 -19 -59
-40 -42 -19 16 -30 16 -41 -1 -8 -13 -4 -30 9 -38 13 -8 17 -30 9 -51 -9 -25
-7 -32 9 -22 13 8 39 6 57 -5 31 -17 30 -21 -10 -46 -51 -32 -56 -68 -10 -85
29 -12 28 -18 -10 -59 -50 -53 -54 -73 -15 -73 28 0 62 -55 54 -87 -2 -10 13
-31 32 -47 26 -21 29 -31 11 -39 -37 -15 -30 -63 15 -102 22 -18 40 -50 40
-69 0 -34 141 -36 3056 -36 l3056 0 162 67 c199 83 337 160 332 184 -2 11 -37
96 -77 189 -40 94 -117 296 -171 450 -55 154 -139 358 -187 453 -49 94 -103
225 -122 290 -129 460 -145 495 -323 698 -249 285 -338 330 -1285 651 -437
148 -743 284 -934 413 -64 44 -139 86 -166 95 l-49 15 56 -66z m-2447 -1711
c69 -206 79 -253 62 -310 -11 -38 -20 -51 -21 -31 -1 20 -15 61 -31 90 -30 57
-123 455 -139 603 l-10 90 28 -100 c16 -55 66 -209 111 -342z m-330 209 c-19
-91 -37 -209 -41 -264 -6 -92 -37 -143 -74 -120 -26 16 -18 133 14 194 17 32
30 78 30 104 0 52 81 275 95 261 5 -5 -6 -84 -24 -175z m798 -268 c51 -52 34
-140 -29 -149 -87 -13 -137 67 -87 138 35 50 73 54 116 11z m387 -620 c79 -56
38 -160 -58 -146 -67 10 -92 64 -59 126 32 59 55 63 117 20z m-20 -773 c73
-73 -21 -187 -113 -137 -48 25 -60 131 -18 148 46 18 107 13 131 -11z"/>
<path d="M1295 1651 c-41 -215 110 -1173 174 -1108 9 8 -9 286 -50 775 -26
308 -94 490 -124 333z"/>
<path d="M1788 1265 c-26 -18 -74 -105 -58 -105 29 0 110 68 110 92 0 31 -18
35 -52 13z"/>
<path d="M1194 1007 c-41 -67 87 -566 213 -832 l83 -175 105 0 c105 0 106 0
78 45 -16 25 -40 81 -54 125 -26 85 -190 382 -221 401 -47 30 8 -129 92 -262
35 -55 76 -122 90 -148 l25 -49 -60 49 c-136 111 -227 321 -274 633 -27 180
-53 251 -77 213z"/>
<path d="M960 667 c0 -7 24 -45 54 -84 38 -50 44 -67 20 -57 -45 17 -43 -8 8
-106 58 -111 38 -119 -75 -27 l-95 77 39 -67 c22 -37 70 -94 108 -128 l70 -61
-56 10 c-41 8 -53 4 -45 -16 6 -15 2 -32 -9 -39 -10 -6 -19 -32 -19 -58 0 -26
-14 -52 -31 -59 -80 -30 10 -52 217 -51 162 0 214 6 189 21 -19 11 -35 32 -35
47 0 14 -32 42 -72 60 -39 19 -67 39 -62 44 7 7 170 -60 264 -108 11 -6 -33
44 -97 110 -91 94 -114 129 -104 162 8 24 -5 85 -30 147 -23 58 -51 126 -60
151 -19 47 -59 62 -59 21 0 -19 -5 -19 -24 0 -25 25 -96 33 -96 11z"/>
</g>
</svg>
